PathFileType	4	(X/Y/Z)	S00_P00_T01_BalancingTrial_0-100.trc
DataRate	CameraRate	NumFrames	NumMarkers	Units	OrigDataRate	OrigDataStartFrame	OrigNumFrames
60	60	7	21	m	60	62	100
Frame#	Time	RHip			RKnee			RAnkle			RBigToe			RSmallToe			RHeel			LHip			LKnee			LAnkle			LBigToe			LSmallToe			LHeel			Neck			Head			Nose			RShoulder			RElbow			RWrist			LShoulder			LElbow			LWrist		
		X1	Y1	Z1	X2	Y2	Z2	X3	Y3	Z3	X4	Y4	Z4	X5	Y5	Z5	X6	Y6	Z6	X7	Y7	Z7	X8	Y8	Z8	X9	Y9	Z9	X10	Y10	Z10	X11	Y11	Z11	X12	Y12	Z12	X13	Y13	Z13	X14	Y14	Z14	X15	Y15	Z15	X16	Y16	Z16	X17	Y17	Z17	X18	Y18	Z18	X19	Y19	Z19	X20	Y20	Z20	X21	Y21	Z21
63	1.05	-0.22445814960695873	1.0025638459427986	-0.9604953007980574	-0.34551138365317086	0.6516313947626954	-0.7946073256474487	-0.4155734216283566	0.2758998512598011	-0.7750870751362618	-0.3833268212333323	0.2072755116468884	-0.619683173119633	-0.4407589433397177	0.20400383233484992	-0.6548281311918103	-0.42612248271300385	0.24500874803732786	-0.7972399971709679	-0.06295656848376471	0.9124515562555519	-1.077458006849639	-0.06000963934042249	0.52310096019759	-0.9303640766680953	-0.013847591680819844	0.14283875362700907	-1.137712867488611	-0.008247039675120577	0.07592064268747176	-0.9920907023111994	0.016585301203267296	0.07605290470593144	-1.0394639597332547	-0.0126187718994773	0.10078507134245387	-1.197016348801396	0.18750251693544365	1.3291998584238198	-0.8811457759726378	0.37629550984572563	1.5021689063221326	-0.6845354605259051	0.25829843166159316	1.3604952818413198	-0.6864555418189829	0.05333328162899207	1.4461634305545952	-0.8534891681315657	-0.20770018754870537	1.4821210565181848	-0.8620690352112417	-0.10254334516385627	1.5895423038906173	-0.6505801708205255	0.3148307842184276	1.224047977601445	-0.9586058342900483	0.3861752059989776	0.9450449946421053	-0.9919949250684333	0.43055468092364907	0.7001501297682993	-0.9298226677203941
64	1.0666666666666669	-0.22346437533770772	0.9993509093863506	-0.9558679266306379	-0.321531165865053	0.6400801114176851	-0.788002633847426	-0.3724345294426642	0.263539707394849	-0.7612809047364064	-0.33353218133642865	0.192805208528026	-0.6128980926664953	-0.3898658584871163	0.18625013388766848	-0.6457320918154826	-0.38321585386496576	0.23425400360045787	-0.7785791438223522	-0.06170023418264535	0.9134672195195804	-1.0738746111078872	-0.05669475361866003	0.5208659753107219	-0.9362500090665972	-0.013016552885868555	0.1442232704154654	-1.130610111922296	-0.007713149873319291	0.07464919580251557	-0.9920353684638077	0.013470343026390557	0.07509381737418394	-1.0443682874281601	-0.014694848962143148	0.10044764995700385	-1.1923975324402099	0.18119405605745745	1.3350032357931392	-0.8728418424917141	0.3730528486484685	1.508233553210848	-0.6814207913806531	0.2550718563171316	1.3630787232946442	-0.6835213681948722	0.044227596089521336	1.447479912142706	-0.8496969053218363	-0.21774115403301522	1.477004198762612	-0.857540097253127	-0.11351891615266914	1.5850099087448373	-0.6394607020780572	0.3150207330307606	1.230833057179464	-0.9432131403596254	0.38379050342886933	0.9494699049209534	-0.9840090534630997	0.4290411924278742	0.7028141045408256	-0.9264250440179861
65	1.0833333333333333	-0.22238966245936617	0.9950407614558646	-0.9513103098058324	-0.2980561576001489	0.6286020446000654	-0.7837982038085648	-0.3320154378504454	0.2507986481587519	-0.7494911603429664	-0.28593053311058797	0.17811961814610056	-0.6086061764286506	-0.3400431734097199	0.16982956122519985	-0.6373646114768075	-0.3431828446927443	0.22381066662973628	-0.7619470316334244	-0.06057019788817946	0.9142402197511902	-1.0690453868468441	-0.05387007778585199	0.5186451082577032	-0.9420222462657801	-0.013353571750716562	0.145860368882165	-1.126485859530588	-0.007441163249906839	0.07321068741499785	-0.9928795848015841	0.009782953113714363	0.07430402025753709	-1.0505846348781207	-0.0171647761819525	0.10196490019168805	-1.1858520642087524	0.17524408730506	1.3408129421990602	-0.8649593492179739	0.3655716282946371	1.514895287233105	-0.6833464628558897	0.25208304878576204	1.366128836408198	-0.6811913116989226	0.03324798094472829	1.4474254731944933	-0.8471541994802471	-0.22887437196494334	1.472195815832549	-0.852921959789311	-0.12566507789799727	1.5789446338405209	-0.6313973728273842	0.3147086583541571	1.2385588524001652	-0.9256922785138553	0.38119092572577756	0.9543680512299714	-0.9760814184789464	0.4280884462593642	0.7068024604712498	-0.919347103981232
66	1.1	-0.22130607711078412	0.989990121147057	-0.946845625137792	-0.27545580678590836	0.6164248294565616	-0.78369148946955	-0.29466198112617414	0.23717630354839275	-0.7409883214403052	-0.24197099105647618	0.16227520938366138	-0.6065030706663147	-0.29353013240176445	0.1547658912413062	-0.6291420617414958	-0.3061912475770142	0.21287400366025117	-0.7483012303056749	-0.05909809822228978	0.9146384185972296	-1.0628236753287743	-0.05115169694878709	0.5172683165517651	-0.9449974850263024	-0.015179353796897352	0.1477154649105951	-1.1265313568212294	-0.007908412772202836	0.07152644940558935	-0.9942290203513691	0.006245039880043034	0.0735838429325816	-1.0567284180210905	-0.020151123411823946	0.10538325438509687	-1.1775646295286402	0.16948628472224986	1.3463751220310172	-0.8571068934384365	0.3531930401338657	1.5227041673324555	-0.6890032812887896	0.24851397474635567	1.3699495969131223	-0.6781652460641066	0.02132009853508341	1.4466268278961336	-0.8441631095115909	-0.24051521407045187	1.4676211727046884	-0.8487079783111227	-0.1390314732847296	1.570847985372078	-0.6261370221706193	0.313163594881245	1.2471797031433567	-0.9070076787502999	0.37864148514852636	0.9602618665249474	-0.9676044275227754	0.427682421143492	0.7124466998215311	-0.9100024417390717
67	1.1166666666666667	-0.2200252976083524	0.9847167639136537	-0.9423122110600031	-0.25435071858157127	0.6029673708295592	-0.788262329518443	-0.2602546811860101	0.22310886471026145	-0.7359069330159208	-0.20309543521134968	0.14582903296696362	-0.6049311797402506	-0.2527843544055308	0.14151031085646876	-0.6204011959507766	-0.2719165417627952	0.20112053230669225	-0.7375727969707726	-0.056688668854030656	0.9146234596914083	-1.0552819445630799	-0.04801949464326235	0.5173212432017497	-0.943338162899761	-0.018133182597345088	0.14993584332706436	-1.1302417581145976	-0.009228906006451688	0.06978799372302938	-0.9951291372363262	0.0034175474460732477	0.07294798723169915	-1.061233805999596	-0.023544055166166266	0.11038728188731865	-1.1685921814132363	0.163608000756203	1.351795064323417	-0.8488253606990166	0.3367368542594713	1.5317585712699333	-0.6947268200946801	0.2439617818123456	1.3745694820057421	-0.673587801806709	0.009647141153042889	1.4456782282548364	-0.839822648991528	-0.25209429123219895	1.463121303237389	-0.845441024453113	-0.1534956148087548	1.561203606746441	-0.6225054600330259	0.30964833483764437	1.256547899946287	-0.8889980762824273	0.376223450131888	0.9675128029965623	-0.9585033195606182	0.42772314750071455	0.7199158761574328	-0.8999665289843889
68	1.1333333333333333	-0.218178975955273	0.9796514041611499	-0.9372634566719311	-0.23555822881848404	0.5883388969344577	-0.7963589307582599	-0.22843818021644666	0.2093789326597743	-0.7332013784238464	-0.17027210270699364	0.12987533378238217	-0.6024694622988845	-0.2191721553659238	0.1300850740970682	-0.6110036446286264	-0.23951146098295728	0.1887467691329739	-0.7287982065410605	-0.05264470208340811	0.9141044575294319	-1.0463260989342966	-0.0443495899794398	0.5186768283587061	-0.937761111293704	-0.02138125916890263	0.15214790187899335	-1.1361387681909392	-0.011136649946751145	0.06829496715440649	-0.994518960134735	0.0013865165074979824	0.07241766795619657	-1.0631398843826487	-0.026755469431407934	0.11613737569430516	-1.1598682596451193	0.15721875684195874	1.357282985485039	-0.8397388174727669	0.3189595811733885	1.5412854148153219	-0.6941890859224196	0.23832324032893773	1.3797867456975337	-0.667153977752667	-0.000900613512914655	1.4448298194227016	-0.834286345458733	-0.2631396789811753	1.4584692506958365	-0.8432722829385293	-0.1686508286301185	1.551403643061734	-0.6183622971886048	0.3036665999972252	1.26625874429658	-0.8739415630817429	0.37369848867842537	0.9761111877273755	-0.9501298492793743	0.4281963510285471	0.7292825279125277	-0.890361736667078
69	1.15	-0.21545152692177033	0.9749819052338435	-0.9309188668558288	-0.2195089882750272	0.5735001291644442	-0.8054377876662515	-0.19881745631976644	0.19656523266505666	-0.7316524658447755	-0.14360373500306864	0.11506481604203155	-0.5992971863955496	-0.19226440314045393	0.11970585494359559	-0.6018664742311167	-0.20811932103515654	0.17614684734651576	-0.7212631536220951	-0.04622000159086026	0.9128677274107052	-1.0355103617360517	-0.04009913715439803	0.520634196282608	-0.9302906381511835	-0.024016522184993762	0.15336911245835874	-1.1424763965087625	-0.013072772635080965	0.067302662474724	-0.9921324516095289	0.00019323851370326814	0.07196566395546773	-1.0624601864268362	-0.02893161715379299	0.12140227409983176	-1.1516070899873494	0.14993003164808513	1.3629385536521017	-0.8297338489413852	0.3033903679207384	1.5502130004203851	-0.6823633574915806	0.23151916493176353	1.3853934947331141	-0.6590333394054029	-0.009625782820709802	1.4445680431243566	-0.8267159933248935	-0.2732974122299867	1.4533487247904633	-0.8417315480448918	-0.18379463670643997	1.5427774957392046	-0.6113815377356476	0.29513506951146373	1.2757165909551564	-0.8637325882199922	0.3706493584660879	0.9858101292283009	-0.9446265941282433	0.4292146336280051	0.740608251496468	-0.8816960374530463
